P3
2 2
255
255
255
255
70
90
9
1
2
3
220
30
12
