P3
2 2
255
0 128 240
1 129 241
2 130 242
3 131 243
