P3
3 3
255
0 128 240
1 129 241
0 128 240
2 130 242
3 131 243
2 130 242
2 130 242
3 131 243
2 130 242
